<svg xmlns="http://www.w3.org/2000/svg" viewBox="0 0 64 64" role="img" aria-labelledby="title">
  <title>Sasogu Apps</title>
  <defs>
    <linearGradient id="bg" x1="0%" y1="0%" x2="100%" y2="100%">
      <stop offset="0%" stop-color="#0e4f61" />
      <stop offset="100%" stop-color="#197188" />
    </linearGradient>
  </defs>
  <rect width="64" height="64" rx="18" fill="url(#bg)" />
  <path
    d="M42.8 20.4c-2.5-2.4-6.3-3.9-11.2-3.9-6.8 0-12.6 3.5-15.3 9.1l6.1 2.8c1.6-3.3 4.8-5.2 8.9-5.2 3.9 0 6.2 1.4 6.2 3.7 0 2.6-2.8 3.2-7.5 4.1-6.4 1.2-13.1 3.2-13.1 11.4 0 7.1 5.8 11.7 14.6 11.7 7.7 0 13.1-3.5 15.6-9.8L41 41.7c-1.4 3.6-4.6 5.6-9 5.6-4.4 0-7.3-1.8-7.3-4.6 0-3 3.2-3.8 7.9-4.7 6.2-1.2 12.7-2.9 12.7-10.9 0-2.7-.9-5-2.5-6.7Z"
    fill="#ffffff"
  />
  <circle cx="47" cy="46.5" r="5.5" fill="#f28c38" />
</svg>
